<svg width="142" height="142" viewBox="0 0 142 142" fill="none" xmlns="http://www.w3.org/2000/svg">
<path opacity="0.068" d="M70.829 141.658C109.947 141.658 141.658 109.947 141.658 70.829C141.658 31.7112 109.947 0 70.829 0C31.7112 0 0 31.7112 0 70.829C0 109.947 31.7112 141.658 70.829 141.658Z" fill="#81255C"/>
<path d="M60.832 100.061C61.783 99.867 62.401 98.938 62.204 97.984C62.011 97.032 61.082 96.418 60.13 96.611M83.707 91.777C83.707 93.637 82.2 95.145 80.341 95.145C78.477 95.145 76.97 93.637 76.97 91.777C76.97 89.917 78.477 88.409 80.34 88.409C82.2 88.409 83.707 89.917 83.707 91.777ZM70.037 97.761C69.105 98.039 68.125 97.506 67.85 96.574C67.575 95.644 68.106 94.662 69.038 94.387L70.037 97.761Z" stroke="#81255C" stroke-width="2.4" stroke-linecap="round"/>
<path d="M60.984 98.334C58.511 98.951 56.058 97.254 55.766 94.721L55.471 92.184C54.988 88.007 57.677 84.122 61.756 83.103C65.879 82.073 70.118 84.296 71.617 88.273L72.249 89.949C73.268 92.661 71.699 95.659 68.886 96.361" stroke="#81255C" stroke-width="2.4" stroke-linecap="round"/>
<path d="M71.421 68.116C78.6648 68.116 84.537 62.2438 84.537 55C84.537 47.7562 78.6648 41.884 71.421 41.884C64.1772 41.884 58.305 47.7562 58.305 55C58.305 62.2438 64.1772 68.116 71.421 68.116Z" stroke="#81255C" stroke-width="2.4"/>
<path d="M59.626 77.7C62.433 80.508 62.433 83.315 62.433 83.315M82.082 88.929C82.082 88.929 86.842 84.645 83.059 78.366L82.082 88.929Z" stroke="#81255C" stroke-width="2.4" stroke-linecap="round"/>
<path fill-rule="evenodd" clip-rule="evenodd" d="M74.894 75.234L70.855 83.314L66.807 75.222C55.922 77.12 47.638 86.596 47.638 98.024V99.239C47.638 101.207 49.236 102.801 51.206 102.801H90.42C92.388 102.801 93.985 101.207 93.985 99.239V98.024C93.985 86.622 85.741 77.164 74.895 75.234H74.894Z" stroke="#81255C" stroke-width="2.4" stroke-linecap="round"/>
</svg>
