<svg width="142" height="142" viewBox="0 0 142 142" fill="none" xmlns="http://www.w3.org/2000/svg">
<path opacity="0.068" d="M70.829 141.658C109.947 141.658 141.658 109.947 141.658 70.829C141.658 31.7112 109.947 0 70.829 0C31.7112 0 0 31.7112 0 70.829C0 109.947 31.7112 141.658 70.829 141.658Z" fill="#81255C"/>
<path fill-rule="evenodd" clip-rule="evenodd" d="M61.492 81.748H42.452C41.307 81.748 40.379 80.816 40.379 79.666V77.435C40.379 76.285 41.307 75.353 42.452 75.353H61.492C62.637 75.353 63.565 76.285 63.565 77.435V79.665C63.565 80.815 62.637 81.748 61.492 81.748ZM65.592 70.045L54.563 58.969C53.753 58.156 53.753 56.837 54.563 56.024L56.134 54.446C56.944 53.633 58.257 53.633 59.066 54.446L70.095 65.523C70.905 66.336 70.905 67.654 70.095 68.467L68.525 70.045C67.715 70.858 66.402 70.858 65.592 70.045V70.045Z" stroke="#81255C" stroke-width="2.38" stroke-linecap="round" stroke-linejoin="round"/>
<path fill-rule="evenodd" clip-rule="evenodd" d="M69.589 65.04L59.547 54.955L75.104 39.33C75.675 38.756 76.601 38.756 77.173 39.33L85.146 47.337C85.717 47.911 85.717 48.841 85.146 49.415L69.589 65.04Z" stroke="#81255C" stroke-width="2.38" stroke-linecap="round" stroke-linejoin="round"/>
<path d="M60.509 86.45C58.454 85.194 56.627 83.602 55.103 81.748M77.911 40.072L84.361 33.595L90.916 40.178L84.466 46.655L77.911 40.072ZM91.345 40.482L84.176 33.282C83.366 32.468 83.366 31.15 84.176 30.337L84.691 29.82C85.501 29.007 86.813 29.007 87.623 29.82L94.793 37.02C95.602 37.833 95.602 39.151 94.793 39.964L94.277 40.482C93.467 41.295 92.155 41.295 91.345 40.482V40.482ZM88.179 90.556C95.016 85.462 99.447 77.294 99.447 68.087C99.447 58.273 94.411 49.64 86.793 44.652L88.179 90.556ZM47.497 82.074C49.732 85.952 52.868 89.241 56.618 91.652L47.497 82.074Z" stroke="#81255C" stroke-width="2.38" stroke-linecap="round" stroke-linejoin="round"/>
<path fill-rule="evenodd" clip-rule="evenodd" d="M84.466 50.919V50.925C89.647 54.844 92.998 61.073 92.998 68.087C92.998 75.359 89.398 81.787 83.89 85.672L84.466 50.919ZM55.63 65.416L53.125 62.899C52.71 62.483 52.71 61.808 53.125 61.391L55.065 59.443L59.072 63.467L57.132 65.416C56.717 65.832 56.045 65.832 55.63 65.416V65.416ZM61.342 71.48L58.836 68.963C58.422 68.547 58.422 67.872 58.836 67.455L60.923 65.36L64.93 69.385L62.843 71.48C62.429 71.896 61.756 71.896 61.342 71.48V71.48Z" stroke="#81255C" stroke-width="2.38" stroke-linecap="round" stroke-linejoin="round"/>
<path d="M83.889 85.671C80.852 83.217 76.993 81.748 72.791 81.748C63.418 81.748 55.747 89.058 55.118 98.31H90.464C90.117 93.205 87.627 88.692 83.889 85.671" stroke="#81255C" stroke-width="2.38" stroke-linecap="round" stroke-linejoin="round"/>
<path d="M46.176 98.31H99.856L102.991 106.182H43.041L46.176 98.31Z" stroke="#81255C" stroke-width="2.38" stroke-linejoin="round"/>
</svg>
