<svg width="120" height="120" viewBox="0 0 120 120" fill="none" xmlns="http://www.w3.org/2000/svg">
<path opacity="0.068" d="M59.52 119.04C92.392 119.04 119.04 92.392 119.04 59.52C119.04 26.648 92.392 0 59.52 0C26.648 0 0 26.648 0 59.52C0 92.392 26.648 119.04 59.52 119.04Z" fill="#81255C"/>
<path d="M45.389 31.707C41.176 31.055 38.908 34.316 37.938 37.739C37.363 39.77 37.16 41.963 37.16 44.215C37.16 56.498 45.248 66.454 55.227 66.454C65.205 66.454 73.294 56.498 73.294 44.215C73.294 41.963 73.09 39.77 72.516 37.739C71.546 34.316 69.277 31.055 65.064 31.707" stroke="#81255C" stroke-width="2" stroke-linecap="round" stroke-linejoin="round"/>
<path d="M55.51 67.08V69.43C55.51 78.602 42.391 76.98 42.391 83.494C42.391 88.964 50.411 89.974 59.284 89.974C70.464 89.974 75.034 87.96 78.887 82.669C82.738 77.379 82.738 67.772 82.738 67.772M46.193 28.12C48.14 28.12 49.717 29.708 49.717 31.667C49.717 33.625 48.14 35.212 46.193 35.212V28.12ZM64.26 35.213C62.314 35.213 60.736 33.625 60.736 31.667C60.736 29.708 62.314 28.12 64.26 28.12V35.213ZM87.735 62.26C87.735 64.922 85.59 67.08 82.945 67.08C80.3 67.08 78.155 64.922 78.155 62.26C78.155 59.598 80.3 57.44 82.945 57.44C85.59 57.44 87.735 59.598 87.735 62.26Z" stroke="#81255C" stroke-width="2" stroke-linecap="round" stroke-linejoin="round"/>
</svg>
